<svg
  xmlns="http://www.w3.org/2000/svg"
  width="174"
  height="292"
  viewBox="0 0 174 292"
  version="1.1"
>
  <path
    d="M 24 68.964 L 24 116.950 40.250 117.225 L 56.500 117.500 56.756 194.665 L 57.012 271.830 63.474 272.165 C 67.028 272.349, 74.450 272.358, 79.968 272.184 L 90 271.867 90 264.951 L 90 258.035 114.750 257.767 L 139.500 257.500 139.500 234.500 L 139.500 211.500 125.250 211.223 L 111 210.945 111 218.473 L 111 226 100.500 226 L 90 226 90 206 C 90 190.703, 90.294 185.984, 91.250 185.932 C 91.938 185.895, 102.480 185.893, 114.678 185.928 C 126.876 185.964, 137.563 185.721, 138.428 185.389 C 139.794 184.865, 140 181.786, 140 161.893 C 140 140.805, 139.862 138.990, 138.250 138.872 C 135.296 138.657, 128.907 138.640, 119.750 138.824 L 111 139 111 146.500 L 111 154 100.500 154 L 90 154 90 135.500 L 90 117 99.010 117 L 108.019 117 107.760 69.250 L 107.500 21.500 65.750 21.239 L 24 20.978 24 68.964 M 51.558 50.775 C 51.251 51.082, 51 59.583, 51 69.667 L 51 88 66.022 88 L 81.044 88 80.772 69.250 L 80.500 50.500 66.308 50.358 C 58.503 50.280, 51.866 50.468, 51.558 50.775 M 101.492 130.250 C 101.248 130.938, 100.924 134.425, 100.774 138 L 100.500 144.500 96.750 144.810 C 93.337 145.093, 93 145.385, 93 148.060 L 93 151 100.500 151 L 108 151 108 143.534 L 108 136.068 118.750 135.784 L 129.500 135.500 129.813 132.250 L 130.127 129 116.032 129 C 105.660 129, 101.820 129.330, 101.492 130.250 M 101 209.500 L 101 217 97 217 C 93.086 217, 93 217.076, 93 220.544 L 93 224.088 100.250 223.794 L 107.500 223.500 107.792 215.750 L 108.084 208 119.042 208 L 130 208 130 205 L 130 202 115.500 202 L 101 202 101 209.500"
    stroke="none"
    fill="#000000"
    fill-rule="evenodd"
  />
</svg>
